# File created by Blade
# Date/Time:  Tue Jan 27 17:01:45 2015
#---------------------------------------------------------
:version 1.10
:name HOM
:units
  mass 1.0
  length 1.000000
  angle deg
:documentation
     Acclaim Skeleton File
:root
   axis xyz
   order TX TY TZ RX RY RZ
   position 0.000000 0.000000 0.000000
   orientation 0 0 0
:bonedata
   begin
      id 1
      name Spine_dum
      direction 0.000000 1.000000 0.000000
      length 7.539951
      axis 0.0 0.0 0.0 xyz
   end
   begin
      id 2
      name LeftUpLeg_dum
      direction 1.000000 0.000000 0.000000
      length 3.345476
      axis 0.0 0.0 0.0 xyz
   end
   begin
      id 3
      name RightUpLeg_dum
      direction -1.000000 0.000000 0.000000
      length 3.345476
      axis 0.0 0.0 0.0 xyz
   end
   begin
      id 4
      name Spine
      direction 0.000000 1.000000 0.000000
      length 0.000000
      axis 0.0 0.0 0.0 xyz
      dof rx ry rz
   end
   begin
      id 5
      name Spine_dum1
      direction 0.000000 1.000000 0.000000
      length 15.093809
      axis 0.0 0.0 0.0 xyz
   end
   begin
      id 6
      name Spine_dum2
      direction 0.000000 1.000000 0.000000
      length 9.738928
      axis 0.0 0.0 0.0 xyz
   end
   begin
      id 7
      name Spine_dum3
      direction 0.000000 1.000000 0.000000
      length 9.738928
      axis 0.0 0.0 0.0 xyz
   end
   begin
      id 8
      name Head
      direction 0.000000 1.000000 0.000000
      length 4.527550
      axis 0.0 0.0 0.0 xyz
      dof rx ry rz
   end
   begin
      id 9
      name LeftShoulder
      direction 1.000000 0.000000 0.000000
      length 7.084015
      axis 0.0 0.0 -90.0 xyz
      dof rx ry rz
   end
   begin
      id 10
      name LeftArm
      direction 1.000000 0.000000 0.000000
      length 10.259319
      axis 0.0 0.0 -90.0 xyz
      dof rx ry rz
   end
   begin
      id 11
      name LeftForeArm
      direction 1.000000 0.000000 0.000000
      length 9.896984
      axis 0.0 0.0 -90.0 xyz
      dof ry rz rx
   end
   begin
      id 12
      name LeftHand
      direction 0.000000 0.000000 0.000000
      length 0.000000
      axis 0.0 0.0 -90.0 xyz
      dof rx ry rz
   end
   begin
      id 13
      name LeftHand_dum1
      direction 0.000000 0.000000 0.000000
      length 0.000000
      axis 0.0 0.0 -90.0 xyz
   end
   begin
      id 14
      name LeftHand_dum2
      direction 1.000000 0.000000 0.000000
      length 3.937000
      axis 0.0 0.0 -90.0 xyz
   end
   begin
      id 15
      name LeftHandThumb1
      direction 0.000000 0.000000 1.000000
      length 3.937000
      axis 0.0 0.0 -90.0 xyz
      dof rx rz ry
   end
   begin
      id 16
      name RightShoulder
      direction -1.000000 0.000000 0.000000
      length 7.084015
      axis 0.0 0.0 90.0 xyz
      dof rx ry rz
   end
   begin
      id 17
      name RightArm
      direction -1.000000 0.000000 0.000000
      length 10.259319
      axis 0.0 0.0 90.0 xyz
      dof rx ry rz
   end
   begin
      id 18
      name RightForeArm
      direction -1.000000 0.000000 0.000000
      length 9.896984
      axis 0.0 0.0 90.0 xyz
      dof ry rz rx
   end
   begin
      id 19
      name RightHand
      direction 0.000000 0.000000 0.000000
      length 0.000000
      axis 0.0 0.0 90.0 xyz
      dof rx ry rz
   end
   begin
      id 20
      name RightHand_dum1
      direction 0.000000 0.000000 0.000000
      length 0.000000
      axis 0.0 0.0 90.0 xyz
   end
   begin
      id 21
      name RightHand_dum2
      direction -1.000000 0.000000 0.000000
      length 3.937000
      axis 0.0 0.0 90.0 xyz
   end
   begin
      id 22
      name RightHandThumb1
      direction 0.000000 0.000000 1.000000
      length 3.937000
      axis 0.0 0.0 90.0 xyz
      dof rx rz ry
   end
   begin
      id 23
      name LeftUpLeg
      direction 0.000000 -1.000000 0.000000
      length 19.114733
      axis 0.0 0.0 0.0 xyz
      dof rx ry rz
   end
   begin
      id 24
      name LeftLeg
      direction 0.000000 -1.000000 0.000000
      length 16.045604
      axis 0.0 0.0 0.0 xyz
      dof rx ry rz
   end
   begin
      id 25
      name LeftFoot
      direction 0.000000 -0.258819 0.965926
      length 5.543155
      axis 15.0 0.0 0.0 xyz
      dof rx ry rz
   end
   begin
      id 26
      name LeftToeBase
      direction 0.000000 0.000000 1.000000
      length 2.952750
      axis 0.0 0.0 0.0 xyz
      dof rx ry rz
   end
   begin
      id 27
      name RightUpLeg
      direction 0.000000 -1.000000 0.000000
      length 19.114733
      axis 0.0 0.0 0.0 xyz
      dof rx ry rz
   end
   begin
      id 28
      name RightLeg
      direction 0.000000 -1.000000 0.000000
      length 16.045604
      axis 0.0 0.0 0.0 xyz
      dof rx ry rz
   end
   begin
      id 29
      name RightFoot
      direction 0.000000 -0.258819 0.965926
      length 5.543155
      axis 15.0 0.0 0.0 xyz
      dof rx ry rz
   end
   begin
      id 30
      name RightToeBase
      direction 0.000000 0.000000 1.000000
      length 2.952750
      axis 0.0 0.0 0.0 xyz
      dof rx ry rz
   end
:hierarchy
   begin
      root Spine_dum LeftUpLeg_dum RightUpLeg_dum
      Spine_dum Spine
      LeftUpLeg_dum LeftUpLeg
      RightUpLeg_dum RightUpLeg
      Spine Spine_dum1 Spine_dum2 Spine_dum3
      Spine_dum1 Head
      Spine_dum2 LeftShoulder
      Spine_dum3 RightShoulder
      LeftShoulder LeftArm
      LeftArm LeftForeArm
      LeftForeArm LeftHand
      LeftHand LeftHand_dum1 LeftHand_dum2
      LeftHand_dum1 LeftHandThumb1
      RightShoulder RightArm
      RightArm RightForeArm
      RightForeArm RightHand
      RightHand RightHand_dum1 RightHand_dum2
      RightHand_dum1 RightHandThumb1
      LeftUpLeg LeftLeg
      LeftLeg LeftFoot
      LeftFoot LeftToeBase
      RightUpLeg RightLeg
      RightLeg RightFoot
      RightFoot RightToeBase
   end

# File created by Blade
# Date/Time:  Tue Jan 27 17:01:38 2015
# Frame Rate: 120.000 fps
#------------------------------------------------------
:FULLY-SPECIFIED
:DEGREES
1570
root -1.278631 36.886788 4.449589 7.189153 3.791324 -0.567950
Spine -4.117125 7.300079 -3.434192
Head -0.837484 9.794398 1.306991
LeftShoulder -1.428949 -6.304617 -2.630999
LeftArm -3.225109 -24.049607 -61.652122
LeftForeArm -63.943568 -0.000000 86.052330
LeftHand -1.242309 -0.000000 -3.642441
LeftHandThumb1 -26.253704 0.000000 33.147579
RightShoulder -1.311152 -21.811332 -0.517848
RightArm 25.410131 -33.539237 51.974511
RightForeArm -148.520313 -0.000000 33.129095
RightHand -0.900253 -0.000000 -2.979537
RightHandThumb1 -24.326973 -0.000000 -32.862282
LeftUpLeg -6.710892 11.555909 4.862780
LeftLeg 7.708527 -0.000000 -0.000000
LeftFoot -14.888694 2.000565 -20.649517
LeftToeBase 15.094327 -0.000000 -0.000000
RightUpLeg -7.799686 -11.024005 -0.088165
RightLeg 10.931873 -0.000000 -0.000000
RightFoot -16.506118 -5.707821 14.238001
RightToeBase 11.272811 -0.000000 -0.000000
1571
root -1.277741 36.886085 4.456124 7.159428 3.977426 -0.543769
Spine -4.085279 7.326024 -3.420249
Head -0.787283 9.809989 1.290501
LeftShoulder -1.393104 -6.281468 -2.613019
LeftArm -3.314423 -24.192907 -61.764511
LeftForeArm -63.720739 -0.000000 85.968819
LeftHand -1.576575 -0.000000 -3.121015
LeftHandThumb1 -26.253704 0.000000 33.147579
RightShoulder -1.286943 -21.784831 -0.535745
RightArm 25.483053 -33.568811 51.864412
RightForeArm -148.451329 -0.000000 33.142856
RightHand -1.024112 -0.000000 -2.838927
RightHandThumb1 -24.326973 -0.000000 -32.862282
LeftUpLeg -6.723546 11.441179 4.854101
LeftLeg 7.748331 -0.000000 -0.000000
LeftFoot -14.887718 1.953787 -20.630638
LeftToeBase 15.139641 -0.000000 -0.000000
RightUpLeg -7.788608 -11.104003 -0.099843
RightLeg 11.045709 -0.000000 -0.000000
RightFoot -16.604522 -5.829460 14.203121
RightToeBase 11.278030 -0.000000 -0.000000
1572
root -1.277593 36.885481 4.463122 7.120285 4.156189 -0.522516
Spine -4.040491 7.360396 -3.406614
Head -0.741887 9.840084 1.273562
LeftShoulder -1.330387 -6.260447 -2.610091
LeftArm -3.410510 -24.339435 -61.888405
LeftForeArm -63.459592 -0.000000 85.923882
LeftHand -1.910594 0.000000 -2.328739
LeftHandThumb1 -26.253704 0.000000 33.147579
RightShoulder -1.238254 -21.767957 -0.553433
RightArm 25.495473 -33.497066 51.849227
RightForeArm -148.475687 0.000000 33.166985
RightHand -1.079890 -0.000000 -2.844945
RightHandThumb1 -24.326973 -0.000000 -32.862282
LeftUpLeg -6.719262 11.340427 4.853784
LeftLeg 7.778954 -0.000000 -0.000000
LeftFoot -14.856583 1.893349 -20.591964
LeftToeBase 15.109373 -0.000000 -0.000000
RightUpLeg -7.739638 -11.191347 -0.114542
RightLeg 11.096061 -0.000000 -0.000000
RightFoot -16.671696 -5.908149 14.222307
RightToeBase 11.301744 -0.000000 -0.000000
1573
root -1.282199 36.885769 4.468174 7.100910 4.335868 -0.531645
Spine -4.017597 7.391937 -3.372283
Head -0.703226 9.833505 1.274690
LeftShoulder -1.284548 -6.250633 -2.608658
LeftArm -3.485056 -24.415068 -62.053367
LeftForeArm -63.271684 -0.000000 85.905721
LeftHand -2.195721 -0.000000 -1.625456
LeftHandThumb1 -26.253704 0.000000 33.147579
RightShoulder -1.224101 -21.725310 -0.546471
RightArm 25.543581 -33.476980 51.782241
RightForeArm -148.522646 -0.000000 33.179010
RightHand -1.046831 -0.000000 -2.851449
RightHandThumb1 -24.326973 -0.000000 -32.862282
LeftUpLeg -6.740685 11.263626 4.886376
LeftLeg 7.807088 -0.000000 -0.000000
LeftFoot -14.828931 1.811280 -20.559672
LeftToeBase 15.106164 -0.000000 -0.000000
RightUpLeg -7.637616 -11.163190 -0.109060
RightLeg 10.986151 -0.000000 -0.000000
RightFoot -16.680286 -5.993429 14.396805
RightToeBase 11.264318 -0.000000 -0.000000
1574
root -1.282806 36.885171 4.473054 7.082363 4.533294 -0.517971
Spine -3.999440 7.384514 -3.353892
Head -0.643458 9.829513 1.274790
LeftShoulder -1.237149 -6.229043 -2.608738
LeftArm -3.547055 -24.442438 -62.230767
LeftForeArm -62.975944 -0.000000 85.897345
LeftHand -2.566248 -0.000000 -0.786447
LeftHandThumb1 -26.253704 0.000000 33.147579
RightShoulder -1.187905 -21.699916 -0.554339
RightArm 25.606300 -33.480044 51.685725
RightForeArm -148.462023 -0.000000 33.209974
RightHand -1.055387 -0.000000 -2.753445
RightHandThumb1 -24.326973 -0.000000 -32.862282
LeftUpLeg -6.766070 11.168383 4.896979
LeftLeg 7.841442 -0.000000 -0.000000
LeftFoot -14.781159 1.678903 -20.581925
LeftToeBase 15.096684 -0.000000 -0.000000
RightUpLeg -7.592297 -11.222176 -0.116756
RightLeg 11.000510 -0.000000 -0.000000
RightFoot -16.741567 -6.075912 14.468485
RightToeBase 11.261898 -0.000000 -0.000000
1575
root -1.282036 36.884628 4.478208 7.064734 4.764143 -0.494597
Spine -3.975564 7.331469 -3.338573
Head -0.601108 9.821827 1.265886
LeftShoulder -1.195110 -6.235469 -2.621309
LeftArm -3.621845 -24.433050 -62.424432
LeftForeArm -62.765291 -0.000000 85.902251
LeftHand -3.018968 0.000000 -0.236984
LeftHandThumb1 -26.253704 0.000000 33.147579
RightShoulder -1.153517 -21.685124 -0.567455
RightArm 25.664396 -33.415525 51.634537
RightForeArm -148.476803 -0.000000 33.216807
RightHand -1.062267 -0.000000 -2.781369
RightHandThumb1 -24.326973 -0.000000 -32.862282
LeftUpLeg -6.798230 11.056671 4.890482
LeftLeg 7.875610 -0.000000 -0.000000
LeftFoot -14.742365 1.591092 -20.521205
LeftToeBase 15.084221 -0.000000 -0.000000
RightUpLeg -7.548106 -11.288694 -0.134742
RightLeg 11.030255 -0.000000 -0.000000
RightFoot -16.804912 -6.214165 14.524466
RightToeBase 11.232175 -0.000000 -0.000000
1576
root -1.282653 36.884314 4.482924 7.047625 4.983201 -0.475150
Spine -3.954378 7.275806 -3.320839
Head -0.548917 9.809266 1.258672
LeftShoulder -1.151771 -6.249045 -2.634992
LeftArm -3.695239 -24.378693 -62.626791
LeftForeArm -62.801947 -0.000000 85.894882
LeftHand -3.214964 -0.000000 0.559993
LeftHandThumb1 -26.253704 0.000000 33.147579
RightShoulder -1.064840 -21.624667 -0.604020
RightArm 25.630494 -33.350113 51.670842
RightForeArm -148.517725 -0.000000 33.238568
RightHand -1.097433 0.000000 -2.795288
RightHandThumb1 -24.326973 -0.000000 -32.862282
LeftUpLeg -6.823284 10.964704 4.889346
LeftLeg 7.892583 -0.000000 -0.000000
LeftFoot -14.692015 1.490476 -20.486733
LeftToeBase 15.092960 -0.000000 -0.000000
RightUpLeg -7.506460 -11.422627 -0.137828
RightLeg 11.044032 -0.000000 -0.000000
RightFoot -16.866249 -6.251005 14.552750
RightToeBase 11.285933 -0.000000 -0.000000
1577
root -1.281471 36.884019 4.486410 7.042728 5.183074 -0.457506
Spine -3.946895 7.222733 -3.295740
Head -0.493453 9.817033 1.236713
LeftShoulder -1.137710 -6.250911 -2.674098
LeftArm -3.703115 -24.277614 -62.849124
LeftForeArm -62.619114 0.000000 85.857084
LeftHand -3.293565 0.000000 0.922986
LeftHandThumb1 -26.253704 0.000000 33.147579
RightShoulder -1.042457 -21.606378 -0.621104
RightArm 25.710876 -33.282352 51.622545
RightForeArm -148.544691 -0.000000 33.256919
RightHand -1.078882 -0.000000 -2.704622
RightHandThumb1 -24.326973 -0.000000 -32.862282
LeftUpLeg -6.851125 10.866676 4.885163
LeftLeg 7.894326 -0.000000 -0.000000
LeftFoot -14.650423 1.408649 -20.466195
LeftToeBase 15.114311 -0.000000 -0.000000
RightUpLeg -7.478187 -11.499401 -0.146337
RightLeg 11.062953 -0.000000 -0.000000
RightFoot -16.906024 -6.381257 14.566779
RightToeBase 11.219542 -0.000000 -0.000000
1578
root -1.279821 36.883713 4.490387 7.038754 5.382314 -0.447036
Spine -3.946307 7.188761 -3.263334
Head -0.429312 9.772234 1.217617
LeftShoulder -1.098754 -6.248679 -2.714351
LeftArm -3.696051 -24.126313 -63.099899
LeftForeArm -62.699049 -0.000000 85.799161
LeftHand -3.400704 -0.000000 1.299402
LeftHandThumb1 -26.253704 0.000000 33.147579
RightShoulder -1.038175 -21.566760 -0.644198
RightArm 25.788496 -33.296318 51.549426
RightForeArm -148.462976 -0.000000 33.259528
RightHand -1.114573 0.000000 -2.735813
RightHandThumb1 -24.326973 -0.000000 -32.862282
LeftUpLeg -6.879320 10.789808 4.881644
LeftLeg 7.902316 -0.000000 -0.000000
LeftFoot -14.534560 1.330895 -20.203100
LeftToeBase 14.798237 -0.000000 -0.000000
RightUpLeg -7.448978 -11.590558 -0.146994
RightLeg 11.073250 -0.000000 -0.000000
RightFoot -16.959688 -6.454501 14.637163
RightToeBase 11.211244 -0.000000 -0.000000
